<?xml version="1.0" encoding="UTF-8"?>
<svg version="1.1" viewBox="0 0 2048 1200" width="1280" height="1280" xmlns="http://www.w3.org/2000/svg">
<path transform="translate(0)" d="m0 0h2048v1200h-2048z" fill="#FDFDFD"/>
<path transform="translate(954,120)" d="m0 0h10l25 3 17 5 15 8 13 11 9 13 9 18 4-2 21-11 29-13 28-11 24-8 26-7 22-4 22-2 21 1 17 3 17 6 12 7 12 11 8 11 8 17 4 17 1 7v28l-3 25-6 27-10 32-13 33-16 34-12 24-8 13h59l14 3 8 3 19-5 7-1 21-1h110l3-14 5-36 2-1 49 1 12 1-8-15-9-9-14-8-14-5-36-6-37-4-52-2-11-1 1-2h70l31-2 23-3 21-5 16-8 9-9 8-14 4-16 1-7 1-28h3l2 29 3 18 5 12 7 9 8 7 14 7 25 6 24 3 21 1 77 1-1 2-64 2-36 4-37 6-16 7-9 5-5 4h-2l-2 4-6 10-3 6v5l5 5 8 9 5 11 2 8v12h135l18 1 2-12 5-12 6-10 12-10 10-5 12-2h62l-1 11-15 105-9 64-5 25-5 12-6 8-8 7-10 5-12 3-9 1h-152l-11-2-3-2-7-1-17 5h-72l-14-4-11-6-9-8-5-10-3-13v-11l4-28 1-8-16 1h-16l-3-1h-38l-3 24-4 23-4 13-6 10-8 8-14 7-7 2-9 1h-162l-6-3-1-1h-8l-16 4-37 2-5 5-9 10-11 14-12 13-5 6 3-1 92-1 4-28 2-7h28l15 3 10 4 6 8 5 13v9l-1 6 11-5 14-2 37-1 4 1h65l2 2 5 1h10l5-3 108-1 99 1-3 23-6 32-3 31-3 17-4 11-7 8-12 6-8 2-21 1h-21l-26-1-14-3-9-6-6-9-2-9v-13l2-20h-27l-2 22-4 16-5 9-9 8-10 4-18 3h-25l-28-1-48-1-4-2h-13l-6 2-41 1-1-4v-4l-6 1-4 3-9 3-43 1h-86l-81-1-6-2h-12l-6 2-14 1-8 4-9 9-11 9-15 13-13 11-17 14-16 13-16 12-13 10-36 26-13 9-15 10-20 13-23 14-15 9-25 14-40 20-26 11-26 10-28 9-31 7-14 2-17 1h-11l-19-2-17-5-16-8-11-9-9-10-8-14-4-9-5 2-33 16-28 12-25 9-18 6-28 7-24 4-26 1-14-1-21-5-10-4-14-9-11-11-9-14-6-15-3-14-2-16v-11l3-27 3-17 9-32 9-26 11-26 12-26 16-31 14-24 8-14 15-24 16-24 11-16 12-17 13-18 14-18 11-14 12-15 9-11 11-13 9-11 13-15 11-12 7-8 12-13 7-8 14-14 7-8 9-10 5-5 7-6 7-8 15-15 8-7 13-12 7-7 8-7 12-11 10-9 11-9 14-13 10-8 16-13 13-11 16-12 15-12 14-10 19-14 17-12 15-10 23-15 21-13 17-10 16-9 28-15 16-8 24-11 31-12 25-8 28-7 18-3z" fill="#030303"/>
<path transform="translate(908,176)" d="m0 0h18l20 3 12 4 11 6 10 9 10 11 1 4-5 5-25 16-14 10-20 14-11 8-19 14-15 12-16 12-13 11-14 11-14 12-11 10-11 9-7 7-4 1-106 1-13 3-10 4-12 9-6 7-7 14-4 12-1 1h-26l-26 2-16 4-10 6-7 7-5 8-5 15-3 14-5 36-6 45v12l4 16 6 9 8 7 13 6 14 4-1 4-3 3h-2l-2 4-8 12-8 11-17 25-7 10-12 19-13 21-14 24-10 18-21 42-13 31-10 28-7 24-5 24-4 35-3 3-45 18-29 9-22 5-22 3h-29l-15-3-13-5-11-7-8-7-9-13-6-13-4-15-2-14v-9l4-32 6-25 12-36 12-28 12-25 12-23 16-27 11-18 11-17 8-12 9-13 11-15 13-18 11-14 12-15 10-13 12-14 9-11 13-15 12-13 7-8 9-10 16-17 59-59 8-7 8-8 11-9 14-13 11-9 11-10 22-18 28-22 13-10 11-8 18-13 36-24 19-12 17-10 25-14 19-10 27-13 27-11 27-9 26-6 20-3z" fill="#FEFEFE"/>
<path transform="translate(1184,176)" d="m0 0h13l18 2 13 4 12 6 9 7 7 7 8 13 6 16 3 16v21l-3 25-6 26-12 36-10 24-12 25-5 9-1 1-24 1-101 1-24 1-14 3-3 2h-11l-3-3-23-2-33-1-1-2 9-15 14-27 14-31 12-31 10-33 6-27 2-13 1-16 2-7 8-5 30-13 34-11 27-6 15-2z" fill="#FEFEFE"/>
<path transform="translate(802,517)" d="m0 0h18l-1 12-9 61-2 15 10 2v4l-7 6-9 11-12 13-9 11-10 10-7 8-24 24-7 8-38 38-8 7-12 11-20 18-11 9-13 12-14 11-11 9-12 10-14 10-15 12-19 13-15 11-30 20-18 11-11 7-4 1-1-6v-21l2-17 5-24 7-24 10-27 15-33 12-24 13-23 16-27 11-17 14-21 14-20 9-12 7-9 20-1 98-1 16-3 14-7 7-7 6-10 4-11 4-24 3-22 2-3z" fill="#FEFEFE"/>
<path transform="translate(777,692)" d="m0 0 1 3-4 25-3 26v12l2 9 5 8 9 6 12 3 27 1h79l13-2 5-4 3 1-10 7-11 8-14 12-13 11-12 9-14 11-16 12-18 13-19 13-13 9-22 14-20 12-28 16-38 19-31 13-22 8-30 8-27 5-20 1-21-2-17-5-13-7-12-11-8-11 1-4 9-6 17-11 22-15 17-12 19-14 13-10 17-13 17-14 9-7 13-11 11-9 15-13 14-12 14-13 8-7 9-9 8-7 13-12 5-6 5-5 10-9 8-8 6-7 8-7 9-10z" fill="#FEFEFE"/>
<path transform="translate(691,398)" d="m0 0h19l1 4-7 4-4 24-11 80-6 42-3 12-4 6-9 3-26 1h-67l-12-1-5-4-2-4v-17l11-76 3-13 7-8 15-2h69l2-13 5-23 6-9 7-4z" fill="#FEFEFE"/>
<path transform="translate(937,449)" d="m0 0h84l13 1 7 3 1 2v18l-9 69-4 19-4 8-4 3-4 1-80 1-1 11-5 27-4 8-5 4-21 2h-6l-1-1v-11l13-92 8-52 3-12 4-6 4-2z" fill="#FEFEFE"/>
<path transform="translate(1207,449)" d="m0 0h109l9 2 5 5v11l-4 36-7 49-3 10-4 6-4 4-5 1h-102l-7-2-3-5v-16l6-42 4-8 4-4 7-2 10-1 67-1 2-7h-61l-16-1-4-2-4-9v-23z" fill="#FEFEFE"/>
<path transform="translate(1652,449)" d="m0 0h97l9 3 2 3v18l-3 26-4 18-4 8-7 3-10 1h-71v8l75 1 6 4 3 6 1 4v20l-1 1h-115l-5-3-4-5v-12l6-47 7-41 4-10 5-4z" fill="#FEFEFE"/>
<path transform="translate(997,245)" d="m0 0h2l1 12v13l-3 24-5 23-7 23-10 26-12 27-10 19-3 4h-12l-1-1v-8l5-35 1-5-2-1h-61l-12 3-12 6-7 6-7 11-8 23-1 1h-57l1-4 21-18 5-5 11-10 8-7 14-12 13-11 28-22 15-12 11-8 18-13 16-11 30-20 15-9z" fill="#FEFEFE"/>
<path transform="translate(1534,398)" d="m0 0h15l15 2 4 3 1 3v10l-4 30-1 3h54l1 1-1 9-4 16-4 6-2 2-13 2h-37l-1 17-5 36h54v8l-3 15-5 9h-2v2l-5 1-32 1h-29l-12-1-5-5-1-3v-11l10-69h-34l-1-6 3-15 6-12 3-2 17-1h11l3-23z" fill="#FEFEFE"/>
<path transform="translate(1078,449)" d="m0 0h112l-1 8-4 17-5 8-6 2-12 1h-68l-2 16-5 33-1 3 90 1 1 3-3 17-4 10-6 5h-107l-6-2-4-7v-9l8-59 6-35 3-6 6-5z" fill="#FEFEFE"/>
<path transform="translate(736,449)" d="m0 0h107l-1 10-3 14-5 8-7 3-13 1h-66l-2 12-8 54-3 12-3 6-5 3-5 1h-23l-1-4 12-81 4-24 4-9 5-4z" fill="#FEFEFE"/>
<path transform="translate(1369,449)" d="m0 0h110l-1 11-3 12-5 9-7 3-19 1-60 1-2 8-8 58-3 11-4 7-5 2-6 1h-22l2-16 10-72 5-25 6-8 5-2z" fill="#FEFEFE"/>
<path transform="translate(414,184)" d="m0 0 2 1-3 27v26l3 23 4 14 7 14 8 9 10 6 18 6 16 3 52 2v1l-25 1-3 1-19 1-28 6-16 6-11 7-8 9-9 16-6 19-6 36-3 16-1 15-4-1 3-19 1-11v-21l-4-28-5-15-5-9-8-9-11-7-11-4-18-4-25-3-13-1-27-1v-1l35-1 20-1 21-3 15-4 10-4 10-7 8-9 8-15 6-17 5-27 6-41z" fill="#030303"/>
<path transform="translate(1101,677)" d="m0 0h65l15 1 3 3v13l-5 41-3 16-3 8-3 3-30 1h-40l-8-1-2-2v-21l3-21 4-8 6-2 53-1 3-5-5 1h-17l-30-1-5-2-2-2-2-10v-9z" fill="#FEFEFE"/>
<path transform="translate(1031,677)" d="m0 0h42l11 1 2 5v15l-4 27-3 5-2 1-9 1-49 1-2 4h50l6 3 3 5 1 16-1 1h-81l-3-3-1-10 5-40 4-23 3-6 4-2z" fill="#FEFEFE"/>
<path transform="translate(1322,677)" d="m0 0h38l17 1 4 3v19l-3 19-3 10-3 2-8 1-51 1-1 4 54 1 5 5 1 4v15l-9 1-73-1-3-2v-18l6-45 3-13 4-5 3-1z" fill="#FEFEFE"/>
<path transform="translate(849,677)" d="m0 0h16l24 1-1 9-3 12-7 3-41 1h-15l2 4 51 1 8 4v15l-4 25-4 8-2 2-18 1h-51l-9-1-2-2-1-4v-13l2-5 59-1 3-1v-3l-52-1-7-2-1-1v-13l4-25 3-10 7-3z" fill="#FEFEFE"/>
<path transform="translate(1501,678)" d="m0 0h81l1 4-5 16-3 3-4 1-50 1-5 1v3l52 1 7 3 1 1v17l-4 24-3 7-5 2-14 1h-53l-9-1-3-4v-15l3-5 60-1 3-1v-3l-55-1-6-1-1-2v-12l4-25 4-10z" fill="#FEFEFE"/>
<path transform="translate(1806,398)" d="m0 0h19l-1 15-10 70-9 65-4 16-4 6-5 2-8 1h-19l1-12 13-96 7-47 3-11 4-6 6-2z" fill="#FEFEFE"/>
<path transform="translate(1204,641)" d="m0 0 17 2 5 2v18l-5 39-1 6 12-1h24l5-25 3-3 7-1h14l-1 16-3 18-3 6-3 3 3 3v11l-3 17-4 9-21 1-1-1 1-9 3-20-9 1h-29v8l-4 17-2 3-3 1h-18l-1-1 1-12 10-73 4-31z" fill="#FEFEFE"/>
<path transform="translate(1030,601)" d="m0 0h12l5 3 10 1 31 1 4 2-6 7h-2l-2 4-11 13-9 10-7 8-7 5-37 1-10 2h-12l-5-2h-65v-1l15-2 8-4 8-7 7-10 5-13 3-12 1-1 55-1 7-3z" fill="#FEFEFE"/>
<path transform="translate(937,677)" d="m0 0h34l13 1 3 7-1 17-5 39-4 17-4 3-7 1h-14l3-24 5-34 1-2-37 1-5 34-3 15-4 8-3 2h-18l-1-3 9-64 4-13 3-3 3-1z" fill="#FEFEFE"/>
<path transform="translate(864,449)" d="m0 0h34v11l-7 48-7 46-3 10-4 6-4 2-19 2-9-1 1-12 14-97 2-12z" fill="#FEFEFE"/>
<path transform="translate(1451,677)" d="m0 0h14l20 1-1 8-4 12-3 3-3 1-54 1-5 32-3 19-3 6-7 2h-16l1-13 5-37 3-19 4-12 4-3z" fill="#FEFEFE"/>
<path transform="translate(1766,818)" d="m0 0h2l1 8 1 16 5 15 6 7 11 7 13 4 32 5 20 2 35 1v1h-64l-13 1-17 4-15 8-7 7-4 8-2 6-1 25h-3l-1-25-5-12-7-8-10-6-11-4-17-3-74-1v-1l48-2 24-3 27-6 12-6 7-7 4-9 2-8 1-12z" fill="#030303"/>
<path transform="translate(601,485)" d="m0 0h55l-5 35-4 17-2 1h-51l4-37z" fill="#030303"/>
<path transform="translate(950,485)" d="m0 0h53v8l-6 42-3 3h-52l2-19 4-27z" fill="#030303"/>
<path transform="translate(948,868)" d="m0 0h1v41l4 15 6 9 8 7 11 4 17 3 28 1v1l-36 2-16 4-10 5-8 8-6 12-3 16-2 12-2-4-2-8-3-19-6-12-9-8-10-4-19-3-30-1v-1l30-1 20-4 12-5 8-7 6-9 5-13 2-12 2-4z" fill="#030303"/>
<path transform="translate(885,398)" d="m0 0h20l1 5-5 34-2 3h-35v-9l5-23 4-6 4-3z" fill="#FEFEFE"/>
<path transform="translate(856,606)" d="m0 0h5l1 1-1 14-4 33-1 1-45 1 6-7 9-11 12-13 8-10 8-8z" fill="#FEFEFE"/>
<path transform="translate(1231,529)" d="m0 0h54l-1 8-2 1h-50l-2-1z" fill="#030303"/>
<path transform="translate(1668,485)" d="m0 0h53v6l-1 2h-53l-1-6z" fill="#030303"/>
<path transform="translate(1318,702)" d="m0 0h37l1 2-1 3-2 1h-36v-5z" fill="#030303"/>
<path transform="translate(1117,732)" d="m0 0h36l1 2-3 4h-34l-1-5z" fill="#030303"/>
<path transform="translate(1024,702)" d="m0 0h37l-2 5-36 1-1-5z" fill="#030303"/>
</svg>
