<?xml version="1.0" encoding="UTF-8"?>
<svg version="1.1" viewBox="0 0 2048 753" width="1280" height="1280" xmlns="http://www.w3.org/2000/svg">
<path transform="translate(0)" d="m0 0h2048v753h-2048z" fill="#FDFDFD"/>
<path transform="translate(968,75)" d="m0 0 17 1 15 4 10 5 9 8 8 13 2 6 12-7 32-14 27-9 21-5 23-2 18 2 16 6 9 7 6 7 7 14 3 15v16l-2 17-5 21-8 24-11 25-13 26-4 6h39l10 3 7-1 9-2 26-1h58l3-16 2-15h35l5 1-6-10-5-5-8-5-13-4-27-4-22-2-32-1-1-2 59-1 23-3 13-4 10-6 6-9 3-8 2-16v-11h2l3 26 4 11 5 7 9 6 13 4 21 3 21 1 41 1v1l-47 2-36 5-14 5-10 7-6 11 1 4 7 8 4 10 1 9 95 1 2-10 5-10 9-8 6-3 5-1h42l-3 22-13 93-4 17-6 10-9 6-10 3-23 1h-39l-44-1-4-2-10 1-3 1-13 1h-28l-12-2-10-5-5-4-4-7-2-10 2-17 1-10h-19l-26-1-3 23-4 15-4 6-9 8-10 3-18 1h-48l-42-1-3-2-9 1-10 2-20 1-12 14-9 11-3 3h58l3-21 1-1h16l14 3 7 6 3 8v7l-1 3 7-3 5-1 27-1 44 1 1 1h10l2-1 67-1 63 1-1 14-4 22-3 26-4 11-7 6-10 3h-41l-10-2-7-5-3-6-1-5 1-16 1-4h-17l-2 18-4 10-4 5-8 4-11 2h-19l-45-1-3-1h-11l-2 1h-26l1-5-13 5h-131l-2-1h-12l-2 1-10 1-11 9-10 9-11 9-13 11-34 26-18 13-29 19-25 15-22 12-25 12-26 10-24 7-15 3-11 1h-17l-15-3-14-7-10-9-6-10-2-7-16 8-25 11-25 9-24 6-15 2h-19l-15-3-14-7-9-8-6-9-4-11-3-18 1-17 3-18 7-24 9-24 16-33 11-20 14-23 12-18 14-20 24-32 11-13 9-11 12-14 7-8 11-12 9-10 8-8 7-8 28-28 8-7 7-7 8-7 11-10 8-7 13-11 25-20 17-13 18-13 19-13 22-14 22-13 26-14 27-12 33-11 18-4z" fill="#020202"/>
<path transform="translate(933,111)" d="m0 0h22l10 2 10 4 9 7 6 8-2 4-25 17-20 14-30 23-17 14-11 9-10 9-8 7-70 1-12 4-8 6-6 8-5 12-1 1h-11l-19 1-12 3-8 5-6 8-4 13-8 57 1 11 3 8 5 6 10 5 9 3-2 4-6 8-12 17-16 24-17 28-17 32-11 25-8 23-5 18-3 20-2 12-13 6-24 9-24 6-14 2h-18l-10-2-12-5-10-9-6-10-4-14-1-6v-11l4-25 6-20 8-21 8-18 12-22 13-22 22-33 12-16 10-13 11-14 12-14 11-13 12-13 7-8 9-9 6-7 6-5 6-7 7-6 5-6 8-7 15-14 11-9 12-11 14-11 16-13 19-14 23-16 19-12 26-15 19-10 28-12 23-7 15-3z" fill="#FEFEFE"/>
<path transform="translate(1104,111)" d="m0 0h24l12 3 12 7 7 8 6 12 3 13v15l-3 21-7 25-9 22-10 21-2 2-68 1-27 1-10 3h-6l-2-2-9-1-26-1 2-5 14-27 10-23 9-27 5-21 2-19 2-5 16-8 19-7 18-5z" fill="#FEFEFE"/>
<path transform="translate(878,324)" d="m0 0h5v8l-7 48 6 1-1 4-5 5-11 12-7 8-14 15-14 14-7 8-8 7-16 16-8 7-12 11-11 9-9 8-10 8-18 14-18 13-17 12-17 11-15 9h-2v-19l3-18 6-22 11-27 15-30 16-27 16-24 12-17 6-7 61-1 17-1 10-3 6-4 6-8 4-12 4-26 1-1z" fill="#FEFEFE"/>
<path transform="translate(855,435)" d="m0 0h2l-4 32v9l2 7 5 5 6 3 5 1h74l-4 4-10 8-13 11-12 9-13 10-17 12-21 14-21 13-24 13-23 11-23 9-22 6-17 3-11 1-16-2-14-5-9-7-7-9 1-3 16-10 23-16 19-14 14-11 16-13 11-9 14-12 20-18 15-14 6-5 7-8 8-7 7-8 6-5z" fill="#FEFEFE"/>
<path transform="translate(953,282)" d="m0 0h62l7 2 1 1v13l-6 45-3 11-4 5-9 1h-44l-1 10-3 15-4 6-3 1h-16l1-14 11-76 3-15 4-4z" fill="#FEFEFE"/>
<path transform="translate(800,250)" d="m0 0h15l-1 3-3 2-3 17-10 72-2 9-3 5-2 1-10 1h-58l-4-2-2-4v-9l8-54 3-6 3-2 5-1h47l4-21 3-6 5-4z" fill="#FEFEFE"/>
<path transform="translate(1404,282)" d="m0 0h65l5 3v11l-2 18-3 12-4 5-8 1h-45l-1 5 49 1 4 4 1 3v14l-2 1h-60l-13-1-3-3v-13l6-42 3-13 4-5z" fill="#FEFEFE"/>
<path transform="translate(1126,282)" d="m0 0h72l5 2 1 9-4 33-4 25-4 6-2 2-11 1h-49l-10-1-3-3-1-5 4-31 3-6 3-3 3-1 49-1 1-4-46-1-4-1-3-6z" fill="#FEFEFE"/>
<path transform="translate(994,154)" d="m0 0h2l1 14-3 21-5 19-9 24-10 22-5 7h-7l-1-1 1-12 3-19-42 1-11 4-7 6-5 10-4 11h-36l1-3 8-7 10-9 15-13 14-12 17-13 18-14 19-13 21-14z" fill="#FEFEFE"/>
<path transform="translate(1332,250)" d="m0 0h15l5 2 2 2v8l-3 20h34l-1 11-4 9-5 2h-28l-1 15-3 19h34l-1 12-4 8-1 1-11 1h-36l-5-3-1-8 6-43 1-2h-22l1-12 4-8 4-2h16l1-12z" fill="#FEFEFE"/>
<path transform="translate(1042,282)" d="m0 0h74l-2 11-3 8-2 2-4 1-49 1-5 32 56 1v8l-4 11-2 2-11 1h-52l-8-1-3-3-1-7 7-50 3-12 3-4z" fill="#FEFEFE"/>
<path transform="translate(1226,282)" d="m0 0h71l-1 11-5 10-6 1-47 1-2 10-5 34-3 8-4 2-17 1 1-14 7-48 2-9 3-5z" fill="#FEFEFE"/>
<path transform="translate(827,282)" d="m0 0h71l-1 9-3 9-3 3-5 1-47 1-3 13-4 29-3 9-4 3-8 1h-9l-1-4 9-59 2-9 5-5z" fill="#FEFEFE"/>
<path transform="translate(628,116)" d="m0 0h2l-2 21v10l3 20 4 11 7 9 10 5 10 3 7 1 39 2v1l-30 1-22 4-13 5-5 4h-2l-2 4-6 10-5 17-5 31v7h-3l1-10 1-12v-11l-3-19-4-11-4-6-11-7-15-4-15-2-29-2v-1l38-1 17-3 12-5 8-7 8-16 4-17z" fill="#020202"/>
<path transform="translate(1059,425)" d="m0 0h49l4 2v12l-4 29-3 9-1 1h-50l-1-1v-13l2-14 2-4 5-2 33-1 1-2h-23l-12-1-2-2z" fill="#FEFEFE"/>
<path transform="translate(1190,425)" d="m0 0h41l5 2v12l-3 16-1 3-3 1-36 1v2l33 1 4 4v11h-52l-1-1v-13l4-29 3-8z" fill="#FEFEFE"/>
<path transform="translate(1e3 425)" d="m0 0h44l2 1v17l-2 12-4 4-36 1v2l33 1 3 3 1 12h-52l-2-5 2-21 4-23 2-3z" fill="#FEFEFE"/>
<path transform="translate(1316,425)" d="m0 0h44l3 2-3 11-2 2-15 1h-23l1 2 31 1 6 2v15l-3 15-3 2-17 1h-20l-12-1-2-3v-8l2-4 40-1v-2l-38-1-1-1v-11l3-16 3-5z" fill="#FEFEFE"/>
<path transform="translate(882,425)" d="m0 0h44l1 3-2 10-3 2-12 1h-25v3h32l6 3v11l-3 16-3 4h-49l-2-3v-9l1-3 39-1v-2l-36-1-2-5 3-20 2-7z" fill="#FEFEFE"/>
<path transform="translate(1500,250)" d="m0 0h15l-3 24-10 71-3 11-5 3-16 1-1-4 12-87 3-14 4-4z" fill="#FEFEFE"/>
<path transform="translate(1124,403)" d="m0 0h9l5 2 1 4-2 21-2 13h22l4-16 1-1 12-1 2 1-3 21-2 4h-2l2 3v10l-3 12-6 2h-9l2-18h-23l-1 8-3 9-1 1h-13l2-18z" fill="#FEFEFE"/>
<path transform="translate(1016,377)" d="m0 0h7l4 2 27 2-1 3-5 5-10 11-7 8-4 3-28 1-2 1h-7l-2-1h-39v-1l10-3 7-6 5-9 4-12 28-1 9-1z" fill="#FEFEFE"/>
<path transform="translate(945,425)" d="m0 0h40l3 3v12l-4 29-3 8-4 1h-10l1-13 4-24-23 1-5 30-3 5-1 1h-12l1-12 4-29 3-9 2-2z" fill="#FEFEFE"/>
<path transform="translate(911,282)" d="m0 0h22l-2 18-7 47-3 9-4 3-17 1-1-3 11-74z" fill="#FEFEFE"/>
<path transform="translate(1257,425)" d="m0 0h42l2 1-2 9-3 5-35 1-3 15-3 19-1 2-3 1h-12l2-17 4-28 3-7z" fill="#FEFEFE"/>
<path transform="translate(1477,513)" d="m0 0h2l1 13 3 10 3 5 10 6 20 4 17 2 24 1v1h-40l-15 2-10 4-6 4-4 7-1 2-1 18h-2l-2-18-4-8-9-6-9-3-5-1-49-1v-1l35-2 22-4 9-3 7-6 3-8z" fill="#020202"/>
<path transform="translate(965,304)" d="m0 0h34l-2 18-2 14-3 2h-27l-5-1 3-24z" fill="#020202"/>
<path transform="translate(746,304)" d="m0 0h35l-4 26-2 7-2 1h-31l1-16 2-15z" fill="#020202"/>
<path transform="translate(964,545)" d="m0 0h1v26l3 10 7 8 8 3 12 2 16 1v1l-22 1-12 3-6 4-5 6-3 7-3 19h-1l-3-21-4-9-7-6-6-2-7-1-22-1v-1l17-1 15-3 8-4 6-7 4-10 2-9z" fill="#020202"/>
<path transform="translate(921,250)" d="m0 0h16l-1 15-2 10-1 1h-22l1-10 3-11 3-4z" fill="#FEFEFE"/>
<path transform="translate(906,380)" d="m0 0 4 1-2 21-1 8-1 1-28 1 6-8 12-13 7-8z" fill="#FEFEFE"/>
<path transform="translate(1416,304)" d="m0 0h34l-1 5-6 1h-27l-1-5z" fill="#020202"/>
<path transform="translate(1142,332)" d="m0 0h34l-1 5-2 1h-20l-12-1z" fill="#020202"/>
<path transform="translate(1070,459)" d="m0 0h23l-1 4h-22z" fill="#020202"/>
<path transform="translate(1203,440)" d="m0 0 17 1-1 3h-23v-3z" fill="#020202"/>
<path transform="translate(1018,440)" d="m0 0 17 1-1 3h-23l-1-3z" fill="#020202"/>
</svg>
