<?xml version="1.0" encoding="UTF-8"?>
<svg version="1.1" viewBox="0 0 2000 2000" width="1280" height="1280" xmlns="http://www.w3.org/2000/svg">
<path transform="translate(0)" d="m0 0h2e3v2e3h-2e3z" fill="#FDFDFD"/>
<path transform="translate(937,730)" d="m0 0h22l15 3 12 6 10 9 6 10 3 6 5-2 30-14 25-9 21-6 18-3h23l10 2 13 5 8 6 8 9 6 13 3 16v13l-2 17-5 21-8 24-11 25-13 26-3 4h37l8 2 7 1 6-2 7-1h81l4-31 2-1h13l22 1 2 1-6-11-9-7-13-5-26-4-19-2-27-1-11-1v-1l49-1 23-2 18-4 10-5 7-8 4-10 2-12 1-15h2l2 25 4 11 5 7 10 6 14 4 13 2 14 1 51 1-1 2-36 1-27 3-19 3-12 5-9 6-6 11 1 4 7 8 4 10v9h94l1-8 4-9 7-8 12-6h43l-3 23-13 91-4 16-6 9-9 6-13 3h-96l-7-2h-7l-7 2h-46l-11-4-8-6-4-6-2-7v-12l3-19h-27l-17 1-5 29-4 10-7 8-10 5-7 1h-101l-4-2h-7l-7 2-25 1-2 4-12 14-7 8-2 2h56l1-1 3-20 2-1h11l14 2 7 3 4 6 2 6v7l-1 3 9-4 18-1 54 1 3 1h8l1-1 69-1 59 1-1 13-4 21-3 26-3 9-6 7-7 3-5 1h-40l-12-3-6-7-2-6v-11l1-10-16-1-1 15-3 11-7 8-6 3-11 2h-20l-43-1-2-1h-11l-2 1h-25v-5l-12 5h-129l-1-1h-11l-15 3-8 8-11 9-15 13-10 8-18 14-19 14-17 12-26 17-22 13-22 12-23 11-26 10-20 6-20 4-17 1-13-1-16-5-11-7-8-9-5-10-1-3-5 2-23 11-15 6-19 7-23 6-12 2h-28l-15-4-10-6-8-7-6-9-4-11-2-11v-21l3-19 6-21 7-20 14-31 13-23 9-16 11-17 10-15 12-17 14-19 11-14 9-11 12-14 9-11 4-5h2l2-4 16-17 9-10 5-6 8-7 26-26h2v-2l8-7 15-14 8-7 14-12 10-8 16-13 16-12 18-13 17-12 22-14 24-14 24-13 27-12 33-11 19-4z" fill="#020202"/>
<path transform="translate(917,764)" d="m0 0h11l16 3 12 6 9 9 2 5-9 7-14 9-20 14-21 16-13 10-17 14-11 9-14 13-5 1-66 1-13 5-8 7-6 12-2 6-29 1-11 2-9 5-6 8-4 11-7 48-1 8v10l3 10 6 7 10 5 8 2v3l-5 5-10 14-13 19-14 22-15 26-9 17-11 24-9 24-6 22-3 22-1 8-10 5-26 10-23 6-13 2h-21l-12-3-8-4-10-9-6-11-3-9-1-6v-16l3-20 7-24 9-22 12-25 10-18 12-19 18-27 12-16 10-13 11-14 24-28 14-15 7-8 42-42 8-7 12-11 11-9 10-9 10-8 14-11 19-14 17-12 15-10 15-9 23-13 16-8 20-9 20-7 21-5z" fill="#FEFEFE"/>
<path transform="translate(1087,764)" d="m0 0 17 1 10 3 10 6 7 7 7 14 3 15-1 17-3 18-8 26-11 26-6 11-2 2-32 1-60 1-9 3h-6l-3-2-10-1-24-1 2-5 13-25 10-23 10-30 5-24 2-16 8-5 25-10 22-6 11-2z" fill="#FEFEFE"/>
<path transform="translate(853,973)" d="m0 0h10l-3 22-4 28-1 4 7 2-6 7-13 15-9 10-14 15-37 37-8 7-12 11-11 9-10 9-9 7-15 12-19 14-20 14-22 14-8 5h-2l-1-12 2-17 5-21 8-22 11-24 13-25 11-18 18-27 10-14 6-7 73-1 12-3 6-4 6-7 4-12 4-26 1-1z" fill="#FEFEFE"/>
<path transform="translate(835,1082)" d="m0 0 2 1-3 21-1 9v9l3 8 5 4 9 3h72l-5 5-13 11-15 12-13 10-18 13-24 16-20 12-16 9-15 8-23 10-16 6-19 5-16 3-12 1-15-2-10-3-10-6-9-10v-4l19-12 20-14 32-24 12-10 11-9 28-24 16-15 12-11z" fill="#FEFEFE"/>
<path transform="translate(950,931)" d="m0 0h16l28 1 5 3v12l-6 45-3 11-4 4-12 1h-40l-1 13-3 13-5 5-16 1-1-5 12-84 3-14 3-4 3-1z" fill="#FEFEFE"/>
<path transform="translate(785,900)" d="m0 0h10v3l-3 2-2 11-11 78-3 10-4 3-12 1h-51l-6-2-3-5 1-13 7-47 3-6 5-3 48-1 6-24 6-5z" fill="#FEFEFE"/>
<path transform="translate(1101,931)" d="m0 0h54l16 1 4 2v16l-6 44-3 9-4 4-15 1h-37l-16-1-3-3-1-7 4-29 3-6 6-3h48l1-6h-47l-4-4-1-2v-15z" fill="#FEFEFE"/>
<path transform="translate(1384,931)" d="m0 0h42l10 1 3 2v17l-3 19-3 8-5 2-45 1-4-1v5l45 1 5 3 2 7v11h-73l-4-5 1-14 5-35 3-14 3-5 4-2z" fill="#FEFEFE"/>
<path transform="translate(970,807)" d="m0 0h3v19l-4 22-6 19-10 25-8 16-3 3h-7v-8l3-20 1-3-42 1-9 3-9 8-4 8-4 11h-35l6-7 12-11 14-12 15-13 17-13 18-14 16-11 12-8z" fill="#FEFEFE"/>
<path transform="translate(1302,900)" d="m0 0 16 1 4 3v10l-2 17h31l2 1-3 15-3 5-4 1-27 1-4 32h33l-1 10-3 8-3 3-15 1h-28l-6-2-1-2v-14l5-34v-2l-20-1-1-4 3-11 3-5 2-1 16-1 5-30z" fill="#FEFEFE"/>
<path transform="translate(1042,931)" d="m0 0h18l30 1-4 16-3 4-4 1h-48l-2 15-3 18h55l1 2-3 13-3 5-1 1-15 1h-41l-13-1-3-3-1-6 6-44 3-16 4-5 2-1z" fill="#FEFEFE"/>
<path transform="translate(614,769)" d="m0 0h1l-1 13v23l2 14 5 12 5 7 12 6 11 3 42 2v2h-21l-13 1-18 4-12 5-8 7-7 14-4 15-4 24-1 11-3-1 2-14v-21l-3-17-4-10-6-7-12-6-14-3-19-2-20-1v-1l27-1 20-2 16-5 8-6 6-10 4-10 3-12 5-33z" fill="#020202"/>
<path transform="translate(1217,931)" d="m0 0h34l16 1-1 9-3 8-3 3-4 1-47 1-2 9-5 35-4 8-3 1h-17l7-50 3-17 4-6 3-2z" fill="#FEFEFE"/>
<path transform="translate(831,931)" d="m0 0h45l1 4-3 12-4 5-4 1-47 1-4 24-3 19-3 8-3 2h-17l-1-2 9-59 2-9 4-4 3-1z" fill="#FEFEFE"/>
<path transform="translate(1034,1072)" d="m0 0h50l2 2v10l-4 29-3 9-1 1-20 1h-22l-7-1-1-9 2-17 2-5 6-2h32v-2l-23-1-10-1-2-1-1-4z" fill="#FEFEFE"/>
<path transform="translate(977,1072)" d="m0 0h48l1 2v10l-3 18-2 2-5 1h-32l1 3h29l5 3 1 3v9h-50l-2-4 1-14 4-27 2-5z" fill="#FEFEFE"/>
<path transform="translate(1159,1072)" d="m0 0h46l2 2v11l-3 16-2 3-4 1-33 1-1 2 34 1 3 3v11l-5 1-46-1-1-2 1-16 4-27 3-5z" fill="#FEFEFE"/>
<path transform="translate(1280,1072)" d="m0 0h50l1 2-3 10-2 2-15 1h-22l1 2 26 1 10 2 1 4-2 18-3 8-1 1-10 1h-32l-7-1-1-1v-11l1-2 39-1v-3h-34l-4-2 1-13 3-14z" fill="#FEFEFE"/>
<path transform="translate(856,1072)" d="m0 0h49l-1 8-2 5-2 1-9 1h-27v3l35 1 2 1 1 4-3 21-3 6-11 1h-33l-5-1-1-2v-11l1-1 39-1-1-2-32-1-5-2 1-13 3-15 1-2z" fill="#FEFEFE"/>
<path transform="translate(1470,900)" d="m0 0h9l-1 14-8 57-4 26-3 8-4 2h-16l1-13 10-74 3-14 5-5z" fill="#FEFEFE"/>
<path transform="translate(991,1025)" d="m0 0h9l6 2 23 1-2 4-11 12-9 11-3 2-5 1-24 1-5 1-5-1-33-1 4-3 8-7 4-7 4-13 35-1z" fill="#FEFEFE"/>
<path transform="translate(1098,1050)" d="m0 0h9l5 2v9l-3 24-1 5 22-1 4-15 3-2h11l-1 13-2 9-3 4 2 2-1 13-3 9-1 1h-13l2-17h-22l-4 16-1 1h-13l2-18 6-42 1-11z" fill="#FEFEFE"/>
<path transform="translate(917,1072)" d="m0 0h46l2 3v9l-4 30-3 8-2 1h-12l3-23 2-13h-23l-1 12-3 18-3 6h-13l5-38 2-9z" fill="#FEFEFE"/>
<path transform="translate(891,931)" d="m0 0h19l1 5-8 55-3 12-3 3-2 1-15 1-2-1 7-50 4-25z" fill="#FEFEFE"/>
<path transform="translate(1220,1072)" d="m0 0h50l1 2-4 11-1 1-23 1h-13l-1 11-3 20-3 5h-13l3-24 3-20 3-6z" fill="#FEFEFE"/>
<path transform="translate(1443,1158)" d="m0 0 2 1 1 14 3 9 8 7 13 4 22 3 21 1 5 1v1h-41l-15 3-10 6-4 5-2 6-1 16h-2l-1-16-5-10-9-6-11-3-8-1-41-1v-1l27-1 22-3 14-4 8-7 3-10z" fill="#020202"/>
<path transform="translate(729,953)" d="m0 0h33l-1 14-4 19h-33l3-27z" fill="#020202"/>
<path transform="translate(943,953)" d="m0 0h32l1 2-4 29-1 2h-33l1-15 3-17z" fill="#020202"/>
<path transform="translate(941,1188)" d="m0 0 2 3v25l3 9 4 5 4 3 12 3 20 1 1 2h-10l-18 2-10 5-6 7-3 9-2 12-2-2-3-17-5-9-9-5-14-2-17-1v-1l21-1 13-3 9-6 6-12 3-15z" fill="#020202"/>
<path transform="translate(904,900)" d="m0 0h11l-1 15-2 10-1 1h-20l-1-1 1-10 3-11 3-3z" fill="#FEFEFE"/>
<path transform="translate(884,1028)" d="m0 0 5 1-3 27-2 2h-26l6-8 12-13 7-8z" fill="#FEFEFE"/>
<path transform="translate(1384,953)" d="m0 0h31l1 4-3 2h-31v-5z" fill="#020202"/>
<path transform="translate(1116,980)" d="m0 0h32v5l-1 1h-32l-1-4z" fill="#020202"/>
<path transform="translate(1045,1105)" d="m0 0h22v3l-1 1h-21z" fill="#020202"/>
<path transform="translate(1176,1086)" d="m0 0h14l1 4-22 1-2-3 1-1z" fill="#020202"/>
<path transform="translate(996,1086)" d="m0 0h14l-1 4h-22v-3z" fill="#020202"/>
</svg>
